<svg width="32" height="32" viewBox="0 0 32 32" fill="none" xmlns="http://www.w3.org/2000/svg">
  <defs>
    <style>
      .thread-path {
        stroke: #000000;
        stroke-width: 3;
        stroke-linecap: round;
        fill: none;
      }
    </style>
  </defs>
  
  <!-- Main squiggly thread lines with optimized stroke width for favicon -->
  <path
    d="M6 8C6 6 8 4 10 4C12 4 14 6 14 8C14 10 12 12 10 12C8 12 6 10 6 8Z"
    className="thread-path"
  />
  <path
    d="M18 8C18 6 20 4 22 4C24 4 26 6 26 8C26 10 24 12 22 12C20 12 18 10 18 8Z"
    className="thread-path"
  />
  <path
    d="M14 8C14 10 16 12 18 12C20 12 22 10 22 8"
    className="thread-path"
  />
  <path
    d="M10 12C10 14 12 16 14 16C16 16 18 14 18 12"
    className="thread-path"
  />
  <path
    d="M18 12C18 14 20 16 22 16C24 16 26 14 26 12"
    className="thread-path"
  />
  <path
    d="M22 16C22 18 24 20 26 20C28 20 30 18 30 20"
    className="thread-path"
  />
  <path
    d="M6 8C6 10 8 12 10 12C12 12 14 10 14 8"
    className="thread-path"
  />
  <path
    d="M2 8C2 6 4 4 6 4C8 4 10 6 10 8"
    className="thread-path"
  />
</svg>
